<svg width="926" height="338" xmlns="http://www.w3.org/2000/svg">

 <g>
  <title>background</title>
  <rect fill="#ffffff" id="canvas_background" height="340" width="928" y="-1" x="-1"/>
 </g>
 <g>
  <title>Layer 1</title>
  <path id="svg_1" fill="#AFAAC1" d="m789,338l-786.99998,0l0,-164c-0.00408,-11.758 1.17889,-23.506 3.53096,-35.047c4.5567,-22.264 13.45442,-43.4125 26.18502,-62.2377c18.8857,-27.9741 45.4777,-49.872 76.555,-63.041c10.526,-4.4492 21.467,-7.84544 32.662,-10.13914c11.541,-2.35328 23.289,-3.5376 35.067,-3.53492l613,0l0,337.99976z" clip-rule="evenodd" fill-rule="evenodd"/>
  <path id="svg_2" fill="black" d="m790,338l-772,0l0,-164c-0.0053,-10.789 1.0812,-21.593 3.2429,-32.205c4.1892,-20.481 12.3727,-39.935 24.0831,-57.2518c17.3667,-25.7246 41.821,-45.8608 70.4,-57.969c9.679,-4.091 19.739,-7.2141 30.033,-9.323c10.611,-2.1636 21.412,-3.2529 32.241,-3.251l612,0l0,323.9998z" clip-rule="evenodd" fill-rule="evenodd"/>
  <path id="svg_3" fill="#1E1E1E" d="m789,338l-710,0l0,-170c-0.0303,-19.127 5.6825,-37.825 16.3987,-53.672c10.4183,-15.4344 25.0883,-27.517 42.2333,-34.7838c11.822,-5.0032 24.531,-7.5689 37.368,-7.544l614,0l0,265.9998z" clip-rule="evenodd" fill-rule="evenodd"/>
  <path id="svg_4" fill="black" d="m767.8,133l-433.8,0c-27.614,0 -50,-22.385 -50,-49.9998c0,-27.6142 22.386,-50 50,-50l433.8,0c6.59,-0.0117 13.117,1.2872 19.2,3.8211l0,92.3577c-6.083,2.534 -12.61,3.833 -19.2,3.821l0,0z" clip-rule="evenodd" fill-rule="evenodd"/>
  <path id="svg_5" fill="#2B2B29" d="m496,86.0002c0,-2.4852 0.879,-4.6066 2.636,-6.3639c1.757,-1.7574 3.879,-2.6361 6.364,-2.6361l97,0c2.485,0 4.607,0.8787 6.364,2.6361c1.757,1.7573 2.636,3.8787 2.636,6.3639c0,2.4853 -0.879,4.6066 -2.636,6.364c-1.757,1.7574 -3.879,2.636 -6.364,2.636l-97,0c-2.485,0 -4.607,-0.8786 -6.364,-2.636c-1.757,-1.7574 -2.636,-3.8787 -2.636,-6.364z" clip-rule="evenodd" fill-rule="evenodd"/>
  <circle id="svg_6" fill="#171717" r="17" cy="86.0002" cx="657"/>
  <circle id="svg_7" stroke-width="2" stroke="#2B2B29" r="16" cy="86.0002" cx="657"/>
  <circle id="svg_8" fill="#232A5E" r="6" cy="86.0002" cx="657"/>
  <path id="svg_9" fill="#323234" d="m781,303l-656,0c-8.837,0 -16,-7.163 -16,-16l0,-42c0,-8.836 7.163,-16 16,-16l656,0c2.426,-0.007 4.82,0.543 7,1.608l0,70.783c-2.179,1.065 -4.574,1.616 -7,1.609z" clip-rule="evenodd" fill-rule="evenodd"/>
  <path id="svg_10" fill="#84E575" d="m435.528,272.061l5.4,-15.552l2.205,0l-7.896,21.636l-0.41,0.957c-1.014,2.244 -2.58,3.367 -4.7,3.367c-0.489,0 -1.014,-0.08 -1.572,-0.24l-0.017,-1.692l1.06,0.103c1.002,0 1.811,-0.251 2.426,-0.752c0.627,-0.49 1.157,-1.339 1.59,-2.546l0.906,-2.496l-6.973,-18.337l2.239,0l5.742,15.552zm9.382,-6.58c0,-1.777 0.342,-3.378 1.026,-4.802c0.695,-1.424 1.669,-2.529 2.922,-3.315c1.265,-0.798 2.694,-1.197 4.289,-1.197c2.461,0 4.455,0.866 5.982,2.598c1.527,1.72 2.29,4.005 2.29,6.853l0,0.427c0,1.789 -0.348,3.401 -1.043,4.837c-0.683,1.424 -1.652,2.523 -2.905,3.298c-1.253,0.775 -2.683,1.162 -4.289,1.162c-2.45,0 -4.444,-0.86 -5.982,-2.581c-1.526,-1.731 -2.29,-4.021 -2.29,-6.87l0,-0.41zm2.051,0.564c0,2.21 0.57,4.028 1.709,5.452c1.151,1.413 2.655,2.119 4.512,2.119c1.845,0 3.338,-0.706 4.477,-2.119c1.151,-1.424 1.726,-3.299 1.726,-5.623l0,-0.393c0,-1.413 -0.262,-2.706 -0.786,-3.879c-0.524,-1.174 -1.259,-2.079 -2.204,-2.717c-0.946,-0.65 -2.028,-0.975 -3.248,-0.975c-1.822,0 -3.309,0.718 -4.46,2.154c-1.151,1.424 -1.726,3.292 -1.726,5.605l0,0.376zm30.591,6.614c-1.231,1.789 -3.196,2.683 -5.896,2.683c-1.971,0 -3.469,-0.57 -4.495,-1.709c-1.025,-1.151 -1.549,-2.848 -1.572,-5.093l0,-12.031l2.034,0l0,11.775c0,3.52 1.424,5.281 4.272,5.281c2.962,0 4.836,-1.225 5.623,-3.675l0,-13.381l2.05,0l0,18.491l-1.982,0l-0.034,-2.341zm15.893,-14.407c-0.433,-0.08 -0.894,-0.119 -1.384,-0.119c-1.276,0 -2.358,0.358 -3.247,1.076c-0.877,0.707 -1.504,1.738 -1.88,3.093l0,12.698l-2.034,0l0,-18.491l2,0l0.034,2.939c1.082,-2.187 2.82,-3.281 5.212,-3.281c0.57,0 1.02,0.074 1.351,0.222l-0.052,1.863zm5.196,-1.743l0.068,3.162c0.695,-1.14 1.561,-2.006 2.598,-2.598c1.036,-0.604 2.181,-0.906 3.435,-0.906c1.982,0 3.458,0.559 4.426,1.675c0.968,1.117 1.458,2.791 1.47,5.024l0,12.134l-2.034,0l0,-12.151c-0.011,-1.652 -0.365,-2.882 -1.06,-3.691c-0.683,-0.809 -1.783,-1.213 -3.298,-1.213c-1.265,0 -2.387,0.398 -3.367,1.196c-0.968,0.786 -1.686,1.851 -2.153,3.196l0,12.663l-2.034,0l0,-18.491l1.949,0zm28.967,18.491c-0.205,-0.581 -0.336,-1.441 -0.393,-2.58c-0.718,0.934 -1.635,1.657 -2.752,2.17c-1.105,0.501 -2.278,0.752 -3.52,0.752c-1.777,0 -3.219,-0.496 -4.324,-1.487c-1.094,-0.991 -1.64,-2.244 -1.64,-3.76c0,-1.8 0.746,-3.224 2.238,-4.272c1.504,-1.048 3.595,-1.572 6.272,-1.572l3.709,0l0,-2.102c0,-1.322 -0.41,-2.359 -1.231,-3.111c-0.809,-0.763 -1.994,-1.145 -3.554,-1.145c-1.425,0 -2.604,0.365 -3.538,1.094c-0.934,0.729 -1.401,1.607 -1.401,2.632l-2.051,-0.017c0,-1.47 0.683,-2.74 2.051,-3.811c1.367,-1.083 3.047,-1.624 5.041,-1.624c2.062,0 3.686,0.519 4.871,1.555c1.196,1.026 1.811,2.461 1.845,4.307l0,8.75c0,1.789 0.188,3.127 0.564,4.016l0,0.205l-2.187,0zm-6.426,-1.469c1.367,0 2.586,-0.331 3.657,-0.992c1.083,-0.661 1.869,-1.543 2.359,-2.649l0,-4.067l-3.657,0c-2.04,0.023 -3.635,0.399 -4.786,1.128c-1.15,0.718 -1.726,1.709 -1.726,2.974c0,1.036 0.382,1.897 1.145,2.58c0.775,0.684 1.778,1.026 3.008,1.026zm15.381,-17.022l0.068,3.008c0.684,-1.117 1.538,-1.954 2.564,-2.512c1.025,-0.559 2.165,-0.838 3.418,-0.838c2.916,0 4.768,1.197 5.554,3.589c0.661,-1.151 1.544,-2.034 2.649,-2.649c1.105,-0.626 2.324,-0.94 3.657,-0.94c3.965,0 5.987,2.165 6.067,6.494l0,12.339l-2.051,0l0,-12.185c-0.011,-1.652 -0.37,-2.877 -1.076,-3.674c-0.695,-0.798 -1.835,-1.196 -3.418,-1.196c-1.47,0.022 -2.712,0.501 -3.726,1.435c-1.014,0.923 -1.578,2.051 -1.692,3.384l0,12.236l-2.051,0l0,-12.339c-0.011,-1.583 -0.387,-2.762 -1.128,-3.537c-0.729,-0.786 -1.857,-1.179 -3.383,-1.179c-1.288,0 -2.393,0.37 -3.316,1.11c-0.923,0.73 -1.606,1.818 -2.051,3.265l0,12.68l-2.05,0l0,-18.491l1.965,0zm36.333,18.833c-1.572,0 -2.996,-0.387 -4.272,-1.162c-1.265,-0.775 -2.251,-1.851 -2.957,-3.23c-0.706,-1.39 -1.06,-2.945 -1.06,-4.666l0,-0.734c0,-1.778 0.342,-3.379 1.026,-4.803c0.695,-1.424 1.658,-2.54 2.888,-3.349c1.23,-0.821 2.563,-1.231 3.999,-1.231c2.244,0 4.022,0.769 5.332,2.307c1.322,1.527 1.982,3.618 1.982,6.272l0,1.145l-13.193,0l0,0.393c0,2.097 0.598,3.846 1.795,5.247c1.207,1.39 2.723,2.085 4.545,2.085c1.094,0 2.057,-0.199 2.889,-0.598c0.843,-0.399 1.606,-1.037 2.29,-1.914l1.281,0.974c-1.503,2.176 -3.685,3.264 -6.545,3.264zm-0.376,-17.432c-1.538,0 -2.837,0.564 -3.896,1.692c-1.049,1.128 -1.687,2.644 -1.915,4.546l11.092,0l0,-0.222c-0.057,-1.777 -0.564,-3.224 -1.521,-4.341c-0.957,-1.116 -2.211,-1.675 -3.76,-1.675zm11.108,15.86c0,-0.399 0.126,-0.735 0.376,-1.009c0.262,-0.284 0.621,-0.427 1.077,-0.427c0.456,0 0.815,0.143 1.077,0.427c0.262,0.274 0.393,0.61 0.393,1.009c0,0.399 -0.131,0.729 -0.393,0.991c-0.262,0.251 -0.621,0.376 -1.077,0.376c-0.456,0 -0.815,-0.125 -1.077,-0.376c-0.25,-0.262 -0.376,-0.592 -0.376,-0.991zm12.989,-3.025l0.307,1.589l0.41,-1.675l4.444,-14.15l1.743,0l4.392,14.031l0.479,1.948l0.393,-1.794l3.794,-14.185l2.119,0l-5.384,18.491l-1.743,0l-4.751,-14.663l-0.222,-1.008l-0.222,1.025l-4.666,14.646l-1.743,0l-5.366,-18.491l2.102,0l3.914,14.236zm33.633,4.255c-0.206,-0.581 -0.337,-1.441 -0.394,-2.58c-0.717,0.934 -1.634,1.657 -2.751,2.17c-1.105,0.501 -2.279,0.752 -3.521,0.752c-1.777,0 -3.218,-0.496 -4.323,-1.487c-1.094,-0.991 -1.641,-2.244 -1.641,-3.76c0,-1.8 0.746,-3.224 2.239,-4.272c1.504,-1.048 3.594,-1.572 6.272,-1.572l3.708,0l0,-2.102c0,-1.322 -0.41,-2.359 -1.23,-3.111c-0.809,-0.763 -1.994,-1.145 -3.555,-1.145c-1.424,0 -2.603,0.365 -3.537,1.094c-0.935,0.729 -1.402,1.607 -1.402,2.632l-2.051,-0.017c0,-1.47 0.684,-2.74 2.051,-3.811c1.367,-1.083 3.048,-1.624 5.042,-1.624c2.062,0 3.685,0.519 4.87,1.555c1.197,1.026 1.812,2.461 1.846,4.307l0,8.75c0,1.789 0.188,3.127 0.564,4.016l0,0.205l-2.187,0zm-6.426,-1.469c1.367,0 2.586,-0.331 3.657,-0.992c1.082,-0.661 1.868,-1.543 2.358,-2.649l0,-4.067l-3.657,0c-2.039,0.023 -3.634,0.399 -4.785,1.128c-1.151,0.718 -1.726,1.709 -1.726,2.974c0,1.036 0.382,1.897 1.145,2.58c0.775,0.684 1.777,1.026 3.008,1.026zm19.004,-1.351l5.622,-15.671l2.102,0l-6.904,18.491l-1.658,0l-6.938,-18.491l2.102,0l5.674,15.671zm13.381,2.82l-2.051,0l0,-18.491l2.051,0l0,18.491zm-2.41,-23.84c0,-0.387 0.126,-0.712 0.376,-0.974c0.251,-0.274 0.593,-0.41 1.026,-0.41c0.433,0 0.774,0.136 1.025,0.41c0.262,0.262 0.393,0.587 0.393,0.974c0,0.387 -0.131,0.712 -0.393,0.974c-0.251,0.262 -0.592,0.393 -1.025,0.393c-0.433,0 -0.775,-0.131 -1.026,-0.393c-0.25,-0.262 -0.376,-0.587 -0.376,-0.974zm19.876,21.499c-1.231,1.789 -3.196,2.683 -5.896,2.683c-1.971,0 -3.469,-0.57 -4.495,-1.709c-1.025,-1.151 -1.549,-2.848 -1.572,-5.093l0,-12.031l2.034,0l0,11.775c0,3.52 1.424,5.281 4.272,5.281c2.962,0 4.836,-1.225 5.623,-3.675l0,-13.381l2.05,0l0,18.491l-1.982,0l-0.034,-2.341zm9.211,-16.15l0.069,3.008c0.683,-1.117 1.538,-1.954 2.563,-2.512c1.025,-0.559 2.165,-0.838 3.418,-0.838c2.917,0 4.768,1.197 5.554,3.589c0.661,-1.151 1.544,-2.034 2.649,-2.649c1.105,-0.626 2.324,-0.94 3.657,-0.94c3.965,0 5.988,2.165 6.067,6.494l0,12.339l-2.051,0l0,-12.185c-0.011,-1.652 -0.37,-2.877 -1.076,-3.674c-0.695,-0.798 -1.834,-1.196 -3.418,-1.196c-1.47,0.022 -2.712,0.501 -3.726,1.435c-1.014,0.923 -1.578,2.051 -1.692,3.384l0,12.236l-2.05,0l0,-12.339c-0.012,-1.583 -0.388,-2.762 -1.128,-3.537c-0.729,-0.786 -1.857,-1.179 -3.384,-1.179c-1.288,0 -2.393,0.37 -3.316,1.11c-0.922,0.73 -1.606,1.818 -2.05,3.265l0,12.68l-2.051,0l0,-18.491l1.965,0zm28.985,17.261c0,-0.399 0.125,-0.735 0.376,-1.009c0.262,-0.284 0.621,-0.427 1.076,-0.427c0.456,0 0.815,0.143 1.077,0.427c0.262,0.274 0.393,0.61 0.393,1.009c0,0.399 -0.131,0.729 -0.393,0.991c-0.262,0.251 -0.621,0.376 -1.077,0.376c-0.455,0 -0.814,-0.125 -1.076,-0.376c-0.251,-0.262 -0.376,-0.592 -0.376,-0.991zm15.398,-0.154c1.424,0 2.614,-0.399 3.571,-1.196c0.969,-0.809 1.493,-1.852 1.573,-3.128l1.965,0c-0.057,1.128 -0.41,2.159 -1.06,3.093c-0.649,0.923 -1.515,1.647 -2.597,2.171c-1.071,0.524 -2.222,0.786 -3.452,0.786c-2.427,0 -4.353,-0.843 -5.777,-2.529c-1.413,-1.686 -2.119,-3.954 -2.119,-6.802l0,-0.615c0,-1.823 0.319,-3.435 0.957,-4.837c0.638,-1.401 1.55,-2.483 2.734,-3.247c1.197,-0.763 2.592,-1.145 4.187,-1.145c2.028,0 3.698,0.604 5.008,1.812c1.321,1.207 2.028,2.797 2.119,4.768l-1.965,0c-0.092,-1.447 -0.616,-2.615 -1.573,-3.504c-0.945,-0.888 -2.142,-1.333 -3.589,-1.333c-1.845,0 -3.281,0.667 -4.306,2c-1.014,1.333 -1.521,3.201 -1.521,5.605l0,0.599c0,2.358 0.507,4.198 1.521,5.52c1.025,1.321 2.466,1.982 4.324,1.982zm10.083,-8.135c0,-1.777 0.341,-3.378 1.025,-4.802c0.695,-1.424 1.669,-2.529 2.922,-3.315c1.265,-0.798 2.695,-1.197 4.29,-1.197c2.461,0 4.455,0.866 5.981,2.598c1.527,1.72 2.29,4.005 2.29,6.853l0,0.427c0,1.789 -0.347,3.401 -1.042,4.837c-0.684,1.424 -1.652,2.523 -2.905,3.298c-1.254,0.775 -2.684,1.162 -4.29,1.162c-2.449,0 -4.443,-0.86 -5.981,-2.581c-1.527,-1.731 -2.29,-4.021 -2.29,-6.87l0,-0.41zm2.05,0.564c0,2.21 0.57,4.028 1.709,5.452c1.151,1.413 2.655,2.119 4.512,2.119c1.846,0 3.338,-0.706 4.478,-2.119c1.15,-1.424 1.726,-3.299 1.726,-5.623l0,-0.393c0,-1.413 -0.262,-2.706 -0.786,-3.879c-0.525,-1.174 -1.259,-2.079 -2.205,-2.717c-0.946,-0.65 -2.028,-0.975 -3.247,-0.975c-1.823,0 -3.31,0.718 -4.461,2.154c-1.15,1.424 -1.726,3.292 -1.726,5.605l0,0.376z"/>
  <path id="svg_11" fill="white" d="m157.877,272.362l-7.446,0l-1.672,4.638l-2.417,0l6.787,-17.773l2.051,0l6.799,17.773l-2.405,0l-1.697,-4.638zm-6.738,-1.929l6.043,0l-3.028,-8.313l-3.015,8.313zm23.047,1.929l-7.446,0l-1.673,4.638l-2.417,0l6.788,-17.773l2.05,0l6.8,17.773l-2.405,0l-1.697,-4.638zm-6.738,-1.929l6.042,0l-3.027,-8.313l-3.015,8.313z"/>
  <path id="svg_12" fill="white" d="m197.353,133.475c-1.104,1.084 -2.393,1.626 -3.868,1.626c-1.884,0 -3.393,-0.645 -4.526,-1.934c-1.133,-1.299 -1.699,-3.047 -1.699,-5.244c0,-1.396 0.302,-2.676 0.908,-3.838c0.615,-1.172 1.47,-2.08 2.563,-2.724c1.094,-0.655 2.325,-0.982 3.692,-0.982c1.406,0 2.656,0.352 3.75,1.055c1.094,0.703 1.943,1.714 2.549,3.032c0.605,1.318 0.913,2.827 0.923,4.526l0,1.568c0,3.555 -0.884,6.347 -2.652,8.379c-1.767,2.031 -4.272,3.115 -7.514,3.252l-1.041,0.014l0,-3.53l0.938,-0.015c3.682,-0.166 5.674,-1.894 5.977,-5.185zm-2.828,-1.611c0.684,0 1.27,-0.176 1.758,-0.528c0.498,-0.351 0.874,-0.776 1.128,-1.274l0,-1.743c0,-1.436 -0.273,-2.549 -0.82,-3.34c-0.547,-0.791 -1.279,-1.187 -2.197,-1.187c-0.85,0 -1.548,0.391 -2.095,1.172c-0.547,0.772 -0.82,1.743 -0.82,2.915c0,1.162 0.263,2.119 0.791,2.871c0.537,0.742 1.289,1.114 2.255,1.114zm10.533,8.056c0,-0.674 0.224,-1.221 0.673,-1.64c0.459,-0.42 1.031,-0.63 1.714,-0.63c0.694,0 1.265,0.21 1.714,0.63c0.459,0.419 0.689,0.966 0.689,1.64c0,0.664 -0.225,1.206 -0.674,1.626c-0.449,0.41 -1.026,0.615 -1.729,0.615c-0.693,0 -1.264,-0.205 -1.714,-0.615c-0.449,-0.42 -0.673,-0.962 -0.673,-1.626zm0,-11.997c0,-0.674 0.224,-1.221 0.673,-1.641c0.459,-0.419 1.031,-0.629 1.714,-0.629c0.694,0 1.265,0.21 1.714,0.629c0.459,0.42 0.689,0.967 0.689,1.641c0,0.664 -0.225,1.206 -0.674,1.626c-0.449,0.41 -1.026,0.615 -1.729,0.615c-0.693,0 -1.264,-0.205 -1.714,-0.615c-0.449,-0.42 -0.673,-0.962 -0.673,-1.626zm20.61,6.05l2.417,0l0,3.413l-2.417,0l0,4.614l-4.233,0l0,-4.614l-8.746,0l-0.19,-2.666l8.892,-14.048l4.277,0l0,13.301zm-8.95,0l4.717,0l0,-7.529l-0.279,0.483l-4.438,7.046zm23.935,8.027l-4.233,0l0,-16.318l-5.054,1.567l0,-3.442l8.833,-3.164l0.454,0l0,21.357z"/>
  <path id="svg_13" fill="#80E770" d="m416.559,262.829l0,-2.8c0.001,-2.701 -1.439,-5.197 -3.778,-6.547c-2.339,-1.351 -5.221,-1.351 -7.559,0c-2.339,1.351 -3.779,3.847 -3.778,6.548l0,2.799l-2.485,0l0,6.659c0,5.546 4.495,10.041 10.041,10.041c5.545,0 10.041,-4.495 10.041,-10.041l0,-6.659l-2.482,0zm-6.765,9.4l0,2.472l-1.587,0l0,-2.47c-1.396,-0.395 -2.287,-1.76 -2.087,-3.197c0.2,-1.437 1.429,-2.507 2.88,-2.507c1.45,0 2.679,1.07 2.879,2.507c0.199,1.437 -0.691,2.802 -2.087,3.197l0.002,-0.002zm5.179,-9.4l-11.945,0l0,-2.8c0,-3.298 2.674,-5.972 5.972,-5.972c3.298,0 5.972,2.674 5.972,5.972l0.001,2.8z" clip-rule="evenodd" fill-rule="evenodd"/>
 </g>
</svg>